<svg width="45" height="45" viewBox="0 0 45 45" fill="none" xmlns="http://www.w3.org/2000/svg">
<g clip-path="url(#clip0)">
<path d="M44.2703 20.3814C41.7448 17.1432 38.4734 14.4648 34.81 12.6358C31.0705 10.7687 27.0474 9.79997 22.8478 9.74917C22.7321 9.746 22.2677 9.746 22.152 9.74917C17.9524 9.80006 13.9293 10.7687 10.1898 12.6358C6.52641 14.4648 3.25521 17.1431 0.729589 20.3814C-0.243359 21.6288 -0.243359 23.3712 0.729589 24.6187C3.25512 27.8568 6.52641 30.5353 10.1898 32.3643C13.9293 34.2313 17.9524 35.2 22.152 35.2508C22.2677 35.254 22.7321 35.254 22.8478 35.2508C27.0473 35.2 31.0705 34.2313 34.81 32.3643C38.4734 30.5353 41.7447 27.8569 44.2703 24.6187C45.2432 23.371 45.2432 21.6288 44.2703 20.3814ZM11.0076 30.7264C7.5869 29.0185 4.532 26.5172 2.1731 23.4928C1.71721 22.9082 1.71721 22.0918 2.1731 21.5072C4.53191 18.4828 7.58681 15.9815 11.0076 14.2736C11.9791 13.7886 12.9712 13.3692 13.9817 13.0141C11.3821 15.351 9.74426 18.7375 9.74426 22.5C9.74426 26.2626 11.3822 29.6494 13.9821 31.9862C12.9716 31.6311 11.9792 31.2115 11.0076 30.7264ZM22.5 33.425C16.4758 33.425 11.5748 28.5241 11.5748 22.4999C11.5748 16.4757 16.4758 11.5748 22.5 11.5748C28.5242 11.5748 33.4251 16.4758 33.4251 22.5C33.4251 28.5242 28.5242 33.425 22.5 33.425ZM42.8269 23.4927C40.4681 26.5171 37.4132 29.0184 33.9924 30.7263C33.022 31.2108 32.0305 31.6284 31.0212 31.9831C33.6191 29.6463 35.2557 26.2608 35.2557 22.4999C35.2557 18.7369 33.6174 15.3499 31.0174 13.0131C32.0281 13.3682 33.0207 13.7882 33.9925 14.2734C37.4132 15.9813 40.4681 18.4827 42.827 21.5071C43.2827 22.0917 43.2827 22.9081 42.8269 23.4927Z" fill="black"/>
<path d="M22.4999 17.8245C19.9219 17.8245 17.8246 19.9219 17.8246 22.4999C17.8246 25.0779 19.9219 27.1752 22.4999 27.1752C25.078 27.1752 27.1753 25.0779 27.1753 22.4999C27.1754 19.9219 25.078 17.8245 22.4999 17.8245ZM22.4999 25.3447C20.9314 25.3447 19.6551 24.0686 19.6551 22.4999C19.6551 20.9312 20.9312 19.6551 22.4999 19.6551C24.0685 19.6551 25.3447 20.9312 25.3447 22.4999C25.3448 24.0686 24.0685 25.3447 22.4999 25.3447Z" fill="black"/>
</g>
<defs>
<clipPath id="clip0">
<rect width="45" height="45" fill="white"/>
</clipPath>
</defs>
</svg>
